# xmcd
#
# Track frame offsets:
#	150
#	14016
#	27521
#	40029
#	52121
#	64553
#	76702
#	89248
#	101361
#	114909
#	128101
#	141945
#	157177
#	169621
#	183140
#
# Disc length: 2623 seconds
#
# Revision: 0
# Processed by: cddbd v1.5.2PL0 Copyright (c) Steve Scherf et al.
# Submitted via: EasyCDDAExtractor 10.1.0.1
#
DISCID=c30a3d0f
DTITLE=Sonny Boy Williamson - Father Of Blues Harmonica, CD 3
DYEAR=2006
DGENRE=Blues
TTITLE0=Million Years Blues
TTITLE1=Sloppy Drunk Blues
TTITLE2=Ground Hog Blues
TTITLE3=She Don't Love Me That Way
TTITLE4=My Black Name Blues
TTITLE5=G.M. and O. Blues
TTITLE6=Sonny Boy's Jump
TTITLE7=Elevator Woman
TTITLE8=Early In The Morning
TTITLE9=Stop Breaking Down
TTITLE10=Sonny Boy's Cold Chills
TTITLE11=Mean Old Highway
TTITLE12=Shake The Boogie
TTITLE13=Sugar Gal
TTITLE14=Wonderful Time
EXTD=
EXTT0=
EXTT1=
EXTT2=
EXTT3=
EXTT4=
EXTT5=
EXTT6=
EXTT7=
EXTT8=
EXTT9=
EXTT10=
EXTT11=
EXTT12=
EXTT13=
EXTT14=
PLAYORDER=
